<?xml version="1.0" encoding="UTF-8" standalone="no"?>
<svg
   viewBox="0 0 433.18301 474.77301"
   version="1.1"
   id="svg8"
   sodipodi:docname="despair.svg"
   width="433.18301"
   height="474.77301"
   inkscape:version="1.1.1 (3bf5ae0d25, 2021-09-20)"
   xmlns:inkscape="http://www.inkscape.org/namespaces/inkscape"
   xmlns:sodipodi="http://sodipodi.sourceforge.net/DTD/sodipodi-0.dtd"
   xmlns="http://www.w3.org/2000/svg"
   xmlns:svg="http://www.w3.org/2000/svg">
  <defs
     id="defs12" />
  <sodipodi:namedview
     id="namedview10"
     pagecolor="#ffffff"
     bordercolor="#666666"
     borderopacity="1.0"
     inkscape:pageshadow="2"
     inkscape:pageopacity="0.0"
     inkscape:pagecheckerboard="0"
     showgrid="false"
     fit-margin-top="0"
     fit-margin-left="0"
     fit-margin-right="0"
     fit-margin-bottom="0"
     inkscape:zoom="1.703125"
     inkscape:cx="210.49541"
     inkscape:cy="236.91743"
     inkscape:window-width="1920"
     inkscape:window-height="1057"
     inkscape:window-x="1912"
     inkscape:window-y="-8"
     inkscape:window-maximized="1"
     inkscape:current-layer="svg8" />
  <g
     class=""
     id="g6"
     transform="translate(-45.215,-19.16)">
    <path
       d="M 45.215,19.162 V 457.605 L 63.902,430.271 V 19.163 H 45.215 Z m 50.21,0 v 408.082 h 18.688 V 19.162 H 95.426 Z m 54.07,0 V 294.11 h 3.21 c 4.71,-5.543 9.902,-10.77 15.48,-15.684 V 19.162 Z m 50.21,0 v 236.98 c 6.047,-3.43 12.296,-6.582 18.69,-9.44 V 19.16 h -18.69 z m 50.21,0 v 216.033 c 6.18,-1.787 12.42,-3.34 18.69,-4.625 V 19.162 Z m 48.923,0 v 207.262 c 5.177,-0.357 10.33,-0.54 15.432,-0.512 1.088,0.006 2.17,0.03 3.255,0.055 V 19.162 Z m 54.07,0 v 211.12 c 4.172,0.978 8.25,2.142 12.237,3.46 1.688,-2.06 3.45,-4.088 5.31,-6.07 0.376,-0.4 0.763,-0.78 1.143,-1.174 V 19.162 Z m 50.21,0 v 184.172 c 6.14,-2.986 12.41,-5.27 18.69,-6.81 V 19.16 h -18.69 z m 50.208,0 v 176.336 c 6.655,1.35 12.978,3.786 18.69,7.395 V 19.163 h -18.69 z M 440.61,212.85 c -3.508,-0.006 -7.176,0.35 -10.97,1.074 -15.174,2.895 -31.835,11.907 -45.554,26.533 -4.884,5.208 -9.023,10.747 -12.434,16.412 -93.246,-57.583 -331.013,75.585 -179.697,189.32 H 72.64 l -26.453,47.744 h 257.165 l -88.48,-103.25 c 24.272,-26.71 67.455,-43.708 96.997,-45.067 13.792,45.098 36.248,113.5 71.734,148.315 h 60.865 c -43.9,-47.444 -77.84,-111.502 -82.236,-183.94 1.887,5.67 4.938,10.597 9.137,14.55 9.046,8.518 22.192,11.497 37.366,8.603 15.175,-2.895 31.838,-11.905 45.557,-26.532 13.72,-14.626 21.666,-31.854 23.61,-47.22 1.943,-15.367 -1.85,-28.35 -10.895,-36.868 -6.784,-6.387 -15.875,-9.66 -26.4,-9.675 z"
       fill="#ffffff"
       fill-opacity="1"
       id="path4" />
  </g>
</svg>
