<?xml version="1.0" encoding="UTF-8" standalone="no"?>
<svg
   viewBox="0 0 407.68799 452.13699"
   version="1.1"
   id="svg8"
   sodipodi:docname="magebarrier.svg"
   width="407.68799"
   height="452.13699"
   inkscape:version="1.1.1 (3bf5ae0d25, 2021-09-20)"
   xmlns:inkscape="http://www.inkscape.org/namespaces/inkscape"
   xmlns:sodipodi="http://sodipodi.sourceforge.net/DTD/sodipodi-0.dtd"
   xmlns="http://www.w3.org/2000/svg"
   xmlns:svg="http://www.w3.org/2000/svg">
  <defs
     id="defs12" />
  <sodipodi:namedview
     id="namedview10"
     pagecolor="#ffffff"
     bordercolor="#666666"
     borderopacity="1.0"
     inkscape:pageshadow="2"
     inkscape:pageopacity="0.0"
     inkscape:pagecheckerboard="0"
     showgrid="false"
     fit-margin-top="0"
     fit-margin-left="0"
     fit-margin-right="0"
     fit-margin-bottom="0"
     inkscape:zoom="1.703125"
     inkscape:cx="199.92661"
     inkscape:cy="233.3945"
     inkscape:window-width="1920"
     inkscape:window-height="1057"
     inkscape:window-x="1912"
     inkscape:window-y="-8"
     inkscape:window-maximized="1"
     inkscape:current-layer="svg8" />
  <g
     class=""
     id="g6"
     transform="translate(-55.514,-23.135)">
    <path
       d="m 57.78,23.135 c -1.517,29.085 -2.193,55.608 -2.266,80.316 6.56,-2.716 13.703,-4.333 21.228,-4.333 31.245,0 56.883,25.64 56.883,56.887 0,31.246 -25.777,56.3 -56.883,56.3 -6.068,0 -11.95,-1.003 -17.488,-2.77 12.652,123.285 48.81,166.815 88.414,192.365 20.677,13.34 42.986,21.7 64.268,33.245 17.444,9.463 34.177,21.525 47.42,40.127 13.23,-18.597 29.925,-30.658 47.324,-40.122 21.226,-11.545 43.46,-19.904 64.064,-33.242 39.46,-25.543 75.488,-69.07 88.135,-192.324 -5.32,1.708 -10.974,2.723 -16.907,2.723 -31.107,0 -56.88,-25.058 -56.88,-56.3 0,-31.244 25.634,-56.888 56.88,-56.888 7.63,0 14.745,1.697 21.23,4.508 -0.07,-24.757 -0.745,-51.334 -2.265,-80.49 -59.488,13 -130.78,19.266 -201.5,19.888 h -0.163 C 188.556,42.405 117.266,36.137 57.778,23.137 Z m 304.124,39.32 -27.117,93.18 -17.945,-5.22 11.504,-39.532 -85.116,63.646 -11.19,-14.97 129.864,-97.105 z m -205.394,1.01 81.732,59.512 -11,15.107 -34.338,-25.004 34.79,103.514 -17.714,5.955 -53.47,-159.085 z m 140.486,99.652 129.383,97.95 -98.25,-0.48 0.09,-18.69 42.15,0.208 -84.653,-64.087 11.28,-14.9 z m -122.357,37.71 10.83,15.228 -36.206,25.754 104.898,-0.17 0.03,18.69 -163.577,0.262 84.024,-59.766 z m 117.79,21 17.806,5.675 -49.39,155.008 -31.248,-96.46 17.777,-5.76 13.324,41.124 31.73,-99.586 z"
       fill="#ffffff"
       fill-opacity="1"
       id="path4" />
  </g>
</svg>
