<?xml version="1.0" encoding="UTF-8" standalone="no"?>
<!-- Created with Inkscape (http://www.inkscape.org/) -->

<svg
   width="155.3119mm"
   height="165.87042mm"
   viewBox="0 0 155.3119 165.87042"
   version="1.1"
   id="svg102"
   sodipodi:docname="onii.svg"
   inkscape:version="1.1.1 (3bf5ae0d25, 2021-09-20)"
   xmlns:inkscape="http://www.inkscape.org/namespaces/inkscape"
   xmlns:sodipodi="http://sodipodi.sourceforge.net/DTD/sodipodi-0.dtd"
   xmlns="http://www.w3.org/2000/svg"
   xmlns:svg="http://www.w3.org/2000/svg">
  <sodipodi:namedview
     id="namedview104"
     pagecolor="#ffffff"
     bordercolor="#666666"
     borderopacity="1.0"
     inkscape:pageshadow="2"
     inkscape:pageopacity="0.0"
     inkscape:pagecheckerboard="0"
     inkscape:document-units="mm"
     showgrid="false"
     inkscape:zoom="0.77682379"
     inkscape:cx="627.55544"
     inkscape:cy="375.24597"
     inkscape:window-width="1920"
     inkscape:window-height="1057"
     inkscape:window-x="1912"
     inkscape:window-y="-8"
     inkscape:window-maximized="1"
     inkscape:current-layer="layer1"
     fit-margin-top="0"
     fit-margin-left="0"
     fit-margin-right="0"
     fit-margin-bottom="0" />
  <defs
     id="defs99">
    <pattern
       id="EMFhbasepattern"
       patternUnits="userSpaceOnUse"
       width="6"
       height="6"
       x="0"
       y="0" />
  </defs>
  <g
     inkscape:label="Calque 1"
     inkscape:groupmode="layer"
     id="layer1"
     transform="translate(-20.497108,-51.093346)">
    <path
       d="m 98.091745,87.724774 c 6.614575,6.35 26.458325,19.049996 39.687495,19.049996 v 25.4 c 0,25.4 -19.84375,63.49999 -39.687495,82.54999 -19.84375,-19.05 -39.6875,-57.14999 -39.6875,-82.54999 v -25.4 c 13.229167,0 33.07292,-12.699996 39.6875,-19.049996 z"
       fill="#ffffff"
       fill-opacity="1"
       id="path862"
       style="stroke-width:0.264583" />
    <path
       d="m 176.07964,51.071321 c -6.4405,9.851827 -11.99028,17.772928 -18.32801,24.189096 -8.32467,8.479031 -18.0882,14.205128 -32.37376,18.095939 -3.186,0.880939 -4.55631,2.495992 -5.1387,4.257869 -0.61664,1.798581 -0.44535,4.000925 0.58239,5.909625 1.02773,1.9087 2.67211,3.45034 4.9674,3.96422 2.32954,0.51388 5.30999,0.0734 9.14687,-2.6061 12.09306,-8.552448 22.88432,-17.765594 30.42107,-28.373558 5.41277,-7.616444 9.18114,-15.933969 10.72274,-25.437091 z m -155.582531,0.03671 c 1.545034,9.488438 5.286004,17.798622 10.695336,25.400385 7.523049,10.607965 18.269772,19.821111 30.431348,28.373554 3.768377,2.67952 6.817335,3.11998 9.07836,2.6061 2.329546,-0.51388 3.973927,-2.05551 5.001664,-3.96422 0.993477,-1.9087 1.199028,-4.111039 0.616644,-5.909621 C 75.669557,95.85235 74.333498,94.237296 71.147508,93.356357 56.861937,89.465545 47.098418,83.739448 38.790862,75.260417 32.45999,68.844249 26.920478,60.93416 20.497109,51.093345 Z m 77.782708,36.338702 c -8.221914,0 -14.867959,0.770819 -20.212204,2.275757 1.884192,1.504936 3.254511,3.45034 4.042437,5.579275 1.301808,3.817398 0.787935,8.038555 -0.993477,11.452195 -1.849932,3.45034 -5.001663,6.27668 -9.11262,7.19433 -3.905404,0.88093 -8.530229,-0.0367 -13.292086,-3.1934 -0.822191,4.11104 -1.199029,8.91949 -1.199029,14.49878 0,17.32512 2.089735,25.5105 4.282246,31.8973 1.747155,5.35904 3.802634,9.87385 4.419277,16.73783 l 15.484596,2.89975 c -0.719415,-0.73411 -1.40457,-1.46823 -2.089734,-2.20233 l -0.856446,-0.99107 v -1.35811 c 0,-2.01882 0.513864,-3.96422 1.54161,-5.43246 1.130508,-1.46822 2.569347,-2.34917 3.973917,-2.82634 1.815672,-0.6607 3.597085,-0.80752 5.447017,-0.88093 v -5.98304 c -0.582384,0.6607 -1.233288,1.32141 -1.918444,1.90869 -1.644381,1.39483 -3.562824,2.56942 -5.960889,2.56942 -6.680295,0 -10.791255,-4.73505 -12.469896,-8.91951 -1.096253,-2.89976 -1.438833,-5.65269 -1.575865,-7.12091 -1.267545,-0.62401 -2.569348,-1.24801 -3.768376,-1.90872 l 2.740637,-5.94632 c 5.309985,2.86305 11.956029,5.65268 17.471565,6.31339 2.74063,0.29364 5.172946,0.11012 7.022878,-0.66071 1.884192,-0.7341 3.220251,-1.90869 4.247988,-4.14774 l 2.774898,-5.90963 2.774893,5.90963 c 1.02774,2.23905 2.3638,3.41364 4.17947,4.14774 1.8842,0.77083 4.35077,0.95435 7.0914,0.66071 5.51553,-0.66071 12.16157,-3.45034 17.47156,-6.31339 l 2.74064,5.94632 c -1.19902,0.66071 -2.53509,1.28471 -3.83689,1.90872 -0.0685,1.46822 -0.41109,4.22115 -1.54161,7.12091 -1.7129,4.18446 -5.75534,8.91951 -12.43563,8.91951 -2.39807,0 -4.35077,-1.17459 -5.96089,-2.56942 -0.68517,-0.58728 -1.37033,-1.24799 -1.91846,-1.90869 v 5.98304 c 1.81568,0.0734 3.63135,0.22023 5.41277,0.88093 1.43884,0.47717 2.84341,1.35812 3.93966,2.82634 1.09625,1.46824 1.61013,3.41364 1.61013,5.43246 v 1.35811 l -0.92497,0.99107 -2.05548,2.20233 15.51886,-2.89975 c 0.58238,-6.86398 2.63787,-11.37879 4.41927,-16.73783 2.15826,-6.3868 4.28225,-14.57218 4.28225,-31.8973 0,-5.57929 -0.41109,-10.38774 -1.26755,-14.49878 -4.69334,3.1567 -9.31815,4.07433 -13.25783,3.1934 -4.11095,-0.91765 -7.29695,-3.74399 -9.07836,-7.19433 -1.81567,-3.41364 -2.32954,-7.634797 -1.02774,-11.452195 0.75368,-2.128935 2.124,-4.074339 4.00819,-5.579275 -5.30999,-1.504938 -11.99029,-2.275757 -20.143683,-2.275757 z m -8.564496,7.96515 6.132171,0.954348 c -1.575861,11.048429 -5.686818,19.417349 -11.78473,24.409329 -6.16644,4.95528 -14.045768,6.31339 -22.233421,4.00094 l 1.610125,-6.38681 c 6.680303,1.87199 12.367122,0.80752 16.854921,-2.86305 4.556301,-3.70729 8.050615,-10.27761 9.420934,-20.114757 z m 17.060459,0 c 1.37033,9.837147 4.8989,16.407467 9.42095,20.114757 4.55631,3.67057 10.20887,4.73504 16.88917,2.86305 l 1.61012,6.38681 c -8.15339,2.31245 -16.10123,0.95434 -22.19916,-4.00094 -6.13217,-4.99198 -10.24313,-13.36089 -11.78473,-24.409329 z M 41.021054,117.2151 c -0.04796,4.51481 -0.113048,8.77267 0.280916,12.33314 0.503592,4.58822 1.640956,8.11197 4.323354,10.97502 2.089737,2.27576 3.083217,5.21222 4.008182,8.44233 0.924965,3.23011 1.610124,6.79057 2.295284,10.05737 0.685159,3.30352 1.370318,6.3134 2.089736,8.2221 0.308321,0.88093 0.616643,1.39481 0.787933,1.61505 1.301802,-0.11011 2.672121,-0.6607 3.871149,-1.65176 -0.719417,-2.42257 -1.678639,-4.77175 -2.706378,-7.78162 -2.261026,-6.64374 -4.522052,-15.82018 -4.659083,-32.88836 -1.096255,-1.39483 -2.158252,-2.78964 -3.220249,-4.03764 -2.261026,-2.5694 -4.313078,-4.47811 -7.070844,-5.28563 z m 114.503816,0 c -2.77489,0.80752 -4.83037,2.71623 -7.12565,5.28563 -1.02774,1.248 -2.124,2.64281 -3.186,4.03764 -0.13702,17.06818 -2.39805,26.24462 -4.62482,32.88836 -1.02774,3.00987 -2.02122,5.35905 -2.70638,7.78162 1.19903,0.99106 2.56934,1.54164 3.83689,1.65176 0.17129,-0.22024 0.44536,-0.73412 0.78793,-1.61505 0.68517,-1.9087 1.37033,-4.91858 2.05548,-8.2221 0.68516,-3.2668 1.37032,-6.79056 2.29528,-10.05737 0.95924,-3.23011 1.95271,-6.16657 4.04246,-8.44233 2.70636,-2.86305 3.83688,-6.3868 4.35075,-10.97502 0.34258,-3.56047 0.27406,-7.81833 0.27406,-12.33314 z m -57.245053,28.92414 c -0.753684,0.80753 -1.54161,1.50494 -2.398065,2.09223 v 21.43617 h -3.083211 c -2.740638,0 -5.309986,0.1101 -6.577534,0.55058 -0.616644,0.25694 -0.924966,0.47717 -0.993477,0.6607 -0.0343,0.0368 -0.102771,0.11011 -0.137031,0.18353 2.363796,2.49599 4.659082,4.88186 6.817336,6.60704 2.432316,1.98212 4.659081,3.00987 6.371982,3.00987 1.712892,0 3.871153,-1.02775 6.371983,-3.00987 2.12398,-1.72518 4.45353,-4.11105 6.74881,-6.60704 0,-0.0734 -0.0685,-0.14682 -0.0685,-0.18353 -0.1028,-0.18353 -0.37684,-0.40376 -1.02774,-0.6607 -1.3018,-0.44046 -3.80263,-0.55058 -6.54328,-0.55058 h -3.08321 v -21.43617 c -0.856444,-0.58729 -1.678631,-1.2847 -2.398054,-2.09223 z m -21.239941,3.00987 c 0.102771,3.04659 1.301808,5.46917 2.740638,5.46917 1.199028,0 2.261025,-1.79859 2.603607,-4.22116 -1.747161,-0.29366 -3.597084,-0.69742 -5.344245,-1.24801 z m 42.479874,0 c -1.78141,0.55059 -3.59708,0.95435 -5.37851,1.24801 0.34259,2.42257 1.37033,4.22116 2.63788,4.22116 1.40458,0 2.6036,-2.42258 2.74063,-5.46917 z m -53.099842,28.04321 v 0.91765 c 0,2.16564 0.650902,4.62493 1.712898,7.23102 0.650902,-1.21129 1.130512,-2.38587 1.404577,-3.56046 l -1.130513,-1.68845 z m 63.719822,0 -3.15174,4.58821 c 0.27407,1.17459 0.78793,2.34917 1.43884,3.56046 1.06199,-2.60609 1.7129,-5.06538 1.7129,-7.23102 z m -51.969337,6.05644 c -0.924966,0.0367 -1.815672,0.22023 -2.706378,0.51389 -1.54161,5.61597 -5.275731,10.46114 -9.557976,14.68229 -0.03426,0.0367 -0.137033,0.11016 -0.17129,0.14683 1.061996,-0.62401 2.192509,-1.21128 3.220248,-1.9087 5.344241,-3.59717 9.969071,-8.03856 12.915251,-11.92937 -1.233288,-1.17458 -2.261025,-1.43152 -3.323022,-1.50494 z m 39.842017,0 c -1.062,0.0734 -2.15826,0.33036 -3.35728,1.50494 2.98043,3.89081 7.53674,8.3322 12.9495,11.92937 1.02774,0.69742 2.124,1.28469 3.15174,1.9087 0,-0.0368 -0.0685,-0.11016 -0.1713,-0.14683 -4.28225,-4.22115 -7.94784,-9.06632 -9.48944,-14.68229 -0.95924,-0.29366 -1.81569,-0.47718 -2.74065,-0.51389 z m -28.502632,1.68848 -1.027745,1.57833 c -0.822187,1.2113 -1.712893,2.45929 -2.74063,3.70728 h 25.076837 c -1.02775,-1.24799 -1.98697,-2.49598 -2.74065,-3.70728 l -1.02774,-1.57833 -2.15826,0.40375 c -2.05547,1.17458 -4.21372,1.94541 -6.611773,1.94541 -2.398065,0 -4.62483,-0.77083 -6.680304,-1.94541 z m -9.763524,11.52559 c -0.993477,0.88095 -2.055474,1.79859 -3.185991,2.64282 2.877669,3.81738 5.755338,7.45127 7.810821,10.68137 l 0.0343,0.0367 v 0.0368 c 1.712892,2.82633 7.673782,5.28563 13.874473,5.28563 6.200703,0 12.161583,-2.42259 13.874463,-5.17552 2.08974,-3.34021 4.96741,-7.0108 7.81082,-10.8649 -1.09624,-0.84423 -2.15825,-1.76187 -3.15173,-2.64281 l -7.63952,11.01173 -1.9527,-0.44047 c 0,0 -5.82385,-1.2113 -8.941333,-1.2113 -3.151731,0 -8.975589,1.2113 -8.975589,1.2113 l -1.952703,0.44047 z m 7.913592,0.36706 2.363797,3.34023 c 1.918452,-0.36706 5.035923,-0.95436 8.256174,-0.95436 3.185993,0 6.337723,0.5873 8.256163,0.95436 l 2.29529,-3.34023 z"
       fill="#ffffff"
       fill-opacity="1"
       id="path4"
       style="stroke-width:0.354607" />
  </g>
</svg>
