<?xml version="1.0" encoding="UTF-8" standalone="no"?>
<svg
   viewBox="0 0 475.629 477.32501"
   version="1.1"
   id="svg8"
   sodipodi:docname="strokeofgenius.svg"
   width="475.629"
   height="477.32501"
   inkscape:version="1.1.1 (3bf5ae0d25, 2021-09-20)"
   xmlns:inkscape="http://www.inkscape.org/namespaces/inkscape"
   xmlns:sodipodi="http://sodipodi.sourceforge.net/DTD/sodipodi-0.dtd"
   xmlns="http://www.w3.org/2000/svg"
   xmlns:svg="http://www.w3.org/2000/svg">
  <defs
     id="defs12" />
  <sodipodi:namedview
     id="namedview10"
     pagecolor="#ffffff"
     bordercolor="#666666"
     borderopacity="1.0"
     inkscape:pageshadow="2"
     inkscape:pageopacity="0.0"
     inkscape:pagecheckerboard="0"
     showgrid="false"
     fit-margin-top="0"
     fit-margin-left="0"
     fit-margin-right="0"
     fit-margin-bottom="0"
     inkscape:zoom="1.703125"
     inkscape:cx="237.50459"
     inkscape:cy="239.26606"
     inkscape:window-width="1920"
     inkscape:window-height="1057"
     inkscape:window-x="1912"
     inkscape:window-y="-8"
     inkscape:window-maximized="1"
     inkscape:current-layer="svg8" />
  <g
     class=""
     id="g6"
     transform="translate(-18.132,-17.215)">
    <path
       d="m 270.953,17.215 -49.748,84.224 -56.092,-59.88 1.748,89.092 -92.368,-40.11 36.354,90.622 -82.698,16.805 59.42,67.454 -69.437,73.39 88.122,10.178 26.578,-26.578 c -0.852,-2.042 -1.668,-4.103 -2.42,-6.195 l -22.756,6.385 -5.05,-17.992 22.757,-6.386 c -1.065,-5.188 -1.83,-10.484 -2.27,-15.873 l -23.643,0.28 -0.22,-18.69 23.644,-0.278 c 0.315,-5.398 0.954,-10.712 1.898,-15.922 l -22.905,-5.848 4.623,-18.107 22.905,5.847 c 1.7,-5.1 3.698,-10.067 5.98,-14.875 l -20.63,-11.588 9.153,-16.293 20.652,11.6 c 2.95,-4.466 6.162,-8.743 9.615,-12.812 l -16.96,-16.563 13.06,-13.37 16.96,16.562 c 3.986,-3.548 8.187,-6.86 12.58,-9.914 l -12.085,-20.373 16.072,-9.535 12.074,20.35 c 4.755,-2.393 9.672,-4.507 14.732,-6.325 l -6.39,-22.766 17.99,-5.05 6.39,22.765 c 5.187,-1.067 10.482,-1.833 15.87,-2.274 l -0.278,-23.65 18.687,-0.223 0.28,23.652 c 5.398,0.313 10.71,0.953 15.92,1.897 l 5.85,-22.91 18.108,4.622 -5.85,22.91 c 5.1,1.698 10.067,3.695 14.875,5.975 l 11.588,-20.632 16.296,9.153 -11.6,20.653 c 4.466,2.95 8.743,6.162 12.813,9.615 l 16.56,-16.96 13.372,13.058 -16.562,16.96 c 3.548,3.985 6.86,8.185 9.916,12.58 l 20.37,-12.085 9.536,16.075 -20.348,12.07 c 2.395,4.754 4.51,9.67 6.33,14.73 l 22.758,-6.388 5.05,17.994 -22.757,6.388 c 1.067,5.187 1.832,10.482 2.274,15.87 l 23.64,-0.278 0.22,18.688 -23.64,0.28 c -0.31,5.398 -0.95,10.712 -1.893,15.923 l 22.894,5.846 -4.622,18.108 -22.894,-5.846 c -1.698,5.103 -3.696,10.07 -5.977,14.88 l 20.617,11.58 -9.152,16.294 -20.637,-11.592 c -2.95,4.467 -6.163,8.746 -9.617,12.817 l 16.947,16.55 -13.056,13.37 -16.95,-16.55 c -3.986,3.55 -8.19,6.863 -12.584,9.92 l 12.078,20.358 -16.075,9.535 -12.065,-20.338 c -4.755,2.395 -9.673,4.51 -14.734,6.328 l 6.385,22.75 -17.994,5.05 -6.384,-22.75 c -5.187,1.068 -10.483,1.834 -15.873,2.275 l 0.28,23.634 -18.686,0.22 -0.28,-23.635 c -5.398,-0.313 -10.712,-0.953 -15.923,-1.896 l -5.846,22.89 -18.107,-4.622 5.847,-22.894 c -2.582,-0.86 -5.128,-1.798 -7.637,-2.81 l -26.326,26.216 7.148,73.713 67.797,-55.734 49.456,43.487 21.12,-53.87 90.09,46.07 -38.16,-96.155 92.102,27.826 -36.908,-79.496 61.514,-6.506 -60.832,-51.39 57.994,-45.053 -73.29,-15.66 59.093,-70.504 -91.66,18 L 406.02,47.85 307.094,110.9 270.954,17.215 Z M 254.016,157.43 c -63.085,0.747 -113.42,52.287 -112.672,115.37 0.145,12.3 2.23,24.108 5.947,35.153 l 16.784,-16.783 c -6.17,-30.05 2.24,-62.392 25.697,-85.852 19.075,-19.073 44.026,-28.157 68.916,-27.447 l 0.003,-0.01 c 14.933,0.424 29.785,4.308 43.216,11.68 l -60.154,60.153 c -10.613,10.615 -11.292,27.843 -1.168,37.963 10.122,10.133 27.35,9.455 37.96,-1.158 L 338.7,226.345 c 19.66,35.818 14.75,81.61 -15.77,112.13 -23.46,23.47 -55.677,31.4 -85.852,25.114 l -16.557,16.488 c 11.394,3.64 23.562,5.544 36.195,5.395 C 319.8,384.726 370.136,333.185 369.39,270.104 368.642,207.02 317.097,156.684 254.016,157.432 Z"
       fill="#ffffff"
       fill-opacity="1"
       id="path4" />
  </g>
</svg>
