<?xml version="1.0" encoding="UTF-8" standalone="no"?>
<svg
   viewBox="0 0 385.97601 466.52802"
   version="1.1"
   id="svg8"
   sodipodi:docname="taunt.svg"
   width="385.97601"
   height="466.52802"
   inkscape:version="1.1.1 (3bf5ae0d25, 2021-09-20)"
   xmlns:inkscape="http://www.inkscape.org/namespaces/inkscape"
   xmlns:sodipodi="http://sodipodi.sourceforge.net/DTD/sodipodi-0.dtd"
   xmlns="http://www.w3.org/2000/svg"
   xmlns:svg="http://www.w3.org/2000/svg">
  <defs
     id="defs12" />
  <sodipodi:namedview
     id="namedview10"
     pagecolor="#ffffff"
     bordercolor="#666666"
     borderopacity="1.0"
     inkscape:pageshadow="2"
     inkscape:pageopacity="0.0"
     inkscape:pagecheckerboard="0"
     showgrid="false"
     fit-margin-top="0"
     fit-margin-left="0"
     fit-margin-right="0"
     fit-margin-bottom="0"
     inkscape:zoom="1.703125"
     inkscape:cx="192.88073"
     inkscape:cy="233.3945"
     inkscape:window-width="1920"
     inkscape:window-height="1057"
     inkscape:window-x="1912"
     inkscape:window-y="-8"
     inkscape:window-maximized="1"
     inkscape:current-layer="svg8" />
  <g
     class=""
     id="g6"
     transform="translate(-63.012,-22.736)">
    <path
       d="m 255.074,22.736 v 0.018 c -27.076,0 -51.88,13.913 -70.523,37.744 -18.626,23.831 -30.596,57.49 -30.596,94.814 0,38.717 13.254,73.419 33.217,97.452 l 12.924,15.638 -19.946,3.758 c -56.755,10.705 -83.593,32.54 -99.175,69.149 -14.592,34.39 -17.652,84.233 -17.963,147.955 h 63.101 v -64.95 H 146 v 64.95 h 220.373 v -64.95 h 19.979 v 64.95 h 62.636 C 448.97,425.029 448.293,374.03 435.002,339.162 420.869,302.114 394.837,280.189 332.949,270.436 l -20.295,-3.19 12.832,-16.039 c 18.937,-23.776 30.653,-57.948 30.653,-95.894 0,-37.324 -11.916,-70.984 -30.596,-94.815 -18.644,-23.83 -43.411,-37.762 -70.469,-37.762 z m -24.142,77.252 c 0,0 -1.358,9.218 -4.309,12.6 -1.558,1.567 -3.317,3.473 -5.572,4.922 -2.365,1.32 -5.077,2.384 -7.717,3.576 -10.34,5.133 -21.12,9.541 -21.12,9.541 l -0.513,-0.787 c 0,0 8.58,-13.911 17.6,-21.098 2.2,-1.888 4.325,-3.903 6.488,-5.47 2.273,-1.44 4.767,-2.228 6.838,-2.971 2.667,-0.623 7.155,-1.783 8.305,-0.313 z m 58.441,0.313 c 2.072,0.742 4.565,1.531 6.838,2.97 2.163,1.568 4.29,3.583 6.49,5.471 9.02,7.186 17.598,21.098 17.598,21.098 l -0.512,0.787 c 0,0 -10.78,-4.409 -21.119,-9.541 -2.64,-1.192 -5.353,-2.255 -7.717,-3.574 -2.255,-1.449 -4.016,-3.355 -5.574,-4.922 -2.951,-3.382 -4.307,-12.6 -4.307,-12.6 1.552,-1.335 6.574,-0.146 8.303,0.31 z m -68.67,29.931 c 10.688,0 19.358,8.672 19.358,19.36 0,10.687 -8.67,19.357 -19.358,19.357 -10.687,0 -19.36,-8.67 -19.36,-19.357 0,-10.688 8.673,-19.36 19.36,-19.36 z m 70.596,0 c 10.687,0 19.357,8.672 19.357,19.36 0,10.687 -8.67,19.36 -19.357,19.36 -10.688,0 -19.36,-8.673 -19.36,-19.36 0,-10.688 8.672,-19.36 19.36,-19.36 z m -42.52,141.438 h 14.422 v 22.926 c 36.503,3.457 65.373,32.325 68.83,68.827 h 22.923 v 14.372 h -22.923 c -3.482,36.502 -32.327,65.373 -68.83,68.83 v 22.95 H 248.78 v -22.95 c -36.502,-3.457 -65.345,-32.328 -68.827,-68.83 h -22.926 v -14.372 h 22.926 c 3.457,-36.502 32.325,-65.37 68.827,-68.827 z m 0,38.565 c -27.873,3.332 -49.854,25.289 -53.186,53.188 h 20.116 v 14.372 h -20.116 c 3.332,27.899 25.313,49.856 53.186,53.188 v -20.092 h 14.422 v 20.092 c 27.875,-3.332 49.857,-25.29 53.189,-53.188 h -20.116 v -14.372 h 20.116 c -3.332,-27.9 -25.314,-49.856 -53.189,-53.188 v 20.118 H 248.78 Z m 0,28.72 h 14.422 v 24.468 h 22.132 v 14.372 H 263.2 v 19.842 h -14.42 v -19.842 h -22.13 v -14.372 h 22.13 z"
       fill="#ffffff"
       fill-opacity="1"
       id="path4" />
  </g>
</svg>
